<mxfile host="app.diagrams.net" modified="2024-04-28T06:57:58.478Z" agent="Mozilla/5.0 (Windows NT 10.0; Win64; x64) AppleWebKit/537.36 (KHTML, like Gecko) Chrome/120.0.0.0 Safari/537.36" version="24.2.7" etag="XD5ip6tbV8Vp34JSIG9g" type="github">
  <diagram name="第 1 页" id="8St_zcBFbdRRsb5abixS">
    <mxGraphModel>
      <root>
        <mxCell id="0" />
        <mxCell id="1" parent="0" />
      </root>
    </mxGraphModel>
  </diagram>
</mxfile>
